<svg width="74" height="15" viewBox="0 0 74 15" fill="none" xmlns="http://www.w3.org/2000/svg">
<path d="M10.144 0.0479946H11.888V12.656H10.144V0.0479946ZM7.12 3.344H15.392V4.736H7.12V3.344ZM7.552 9.808H15.088V11.184H7.552V9.808ZM7.952 7.616H14.688V9.008H7.952V7.616ZM4.16 1.23199H6.384V2.76799H4.16V1.23199ZM4.976 5.61599H6.736V7.008H4.976V5.61599ZM5.952 1.23199H6.16L6.432 1.15199L7.632 1.472C7.41866 2.06933 7.168 2.72533 6.88 3.43999C6.60266 4.15466 6.30933 4.87466 6 5.6C5.69066 6.32533 5.392 7.01333 5.104 7.664L3.536 7.312C3.74933 6.82133 3.97333 6.30933 4.208 5.776C4.44266 5.232 4.66666 4.69333 4.88 4.16C5.09333 3.616 5.29066 3.10933 5.472 2.63999C5.664 2.17066 5.824 1.76 5.952 1.408V1.23199ZM6.256 5.61599H6.576L6.864 5.584L7.872 5.75999C7.712 8.02133 7.36 9.904 6.816 11.408C6.272 12.912 5.456 14.0907 4.368 14.944C4.304 14.7947 4.208 14.6293 4.08 14.448C3.96266 14.2773 3.83466 14.1013 3.696 13.92C3.568 13.7493 3.44 13.6107 3.312 13.504C3.89866 13.0987 4.39466 12.528 4.8 11.792C5.20533 11.0453 5.53066 10.1707 5.776 9.168C6.02133 8.16533 6.18133 7.072 6.256 5.888V5.61599ZM5.072 8.016C5.28533 9.06133 5.57333 9.91466 5.936 10.576C6.29866 11.2373 6.72533 11.7493 7.216 12.112C7.71733 12.4747 8.28266 12.7253 8.912 12.864C9.552 12.992 10.2453 13.056 10.992 13.056C11.1413 13.056 11.36 13.056 11.648 13.056C11.9467 13.056 12.2773 13.056 12.64 13.056C13.0133 13.056 13.3813 13.056 13.744 13.056C14.1173 13.0453 14.464 13.04 14.784 13.04C15.104 13.04 15.3493 13.0347 15.52 13.024C15.4453 13.1627 15.3653 13.3333 15.28 13.536C15.1947 13.7493 15.12 13.9627 15.056 14.176C14.992 14.3893 14.944 14.5813 14.912 14.752H14.144H10.896C9.936 14.752 9.072 14.6613 8.304 14.48C7.536 14.3093 6.85333 13.9947 6.256 13.536C5.65866 13.088 5.14133 12.4533 4.704 11.632C4.27733 10.8 3.91466 9.73333 3.616 8.432L5.072 8.016ZM8.144 1.248H14.592V6.88H8.144V5.488H12.992V2.63999H8.144V1.248ZM2.88 -4.76837e-06L4.592 0.495995C4.31466 1.38133 3.97866 2.27733 3.584 3.184C3.2 4.08 2.77866 4.93333 2.32 5.744C1.86133 6.55466 1.37066 7.26933 0.847998 7.888C0.815998 7.728 0.746664 7.52 0.639998 7.264C0.543998 6.99733 0.437331 6.73066 0.319998 6.46399C0.213331 6.19733 0.106664 5.97866 -2.48849e-06 5.808C0.607998 5.09333 1.15733 4.224 1.648 3.2C2.14933 2.16533 2.56 1.09866 2.88 -4.76837e-06ZM1.792 4.608L3.44 2.96L3.456 2.99199V14.944H1.792V4.608ZM15.712 13.536L18.656 2.33599H22.336L25.28 13.536H23.104L22.496 11.072H18.496L17.888 13.536H15.712ZM18.992 9.12H22L20.64 3.66399H20.352L18.992 9.12ZM28.9184 13.536C28.3957 13.536 27.969 13.376 27.6384 13.056C27.3184 12.7253 27.1584 12.288 27.1584 11.744V7.264H25.1744V5.6H27.1584V3.13599H29.1744V5.6H31.3504V7.264H29.1744V11.392C29.1744 11.712 29.3237 11.872 29.6224 11.872H31.1584V13.536H28.9184ZM32.7752 13.536V2.33599H34.7912V6.57599H35.0792C35.1646 6.40533 35.2979 6.23466 35.4792 6.064C35.6606 5.89333 35.9006 5.75466 36.1992 5.64799C36.5086 5.53066 36.8979 5.472 37.3672 5.472C37.9859 5.472 38.5246 5.616 38.9832 5.904C39.4526 6.18133 39.8152 6.57066 40.0712 7.072C40.3272 7.56266 40.4552 8.13866 40.4552 8.8V13.536H38.4392V8.96C38.4392 8.36266 38.2899 7.91466 37.9912 7.616C37.7032 7.31733 37.2872 7.16799 36.7432 7.16799C36.1246 7.16799 35.6446 7.376 35.3032 7.792C34.9619 8.19733 34.7912 8.768 34.7912 9.504V13.536H32.7752ZM42.2346 13.536V2.33599H44.2506V13.536H42.2346ZM49.7006 13.76C48.9113 13.76 48.2126 13.5947 47.6046 13.264C47.0073 12.9227 46.538 12.448 46.1966 11.84C45.866 11.2213 45.7006 10.496 45.7006 9.664V9.472C45.7006 8.64 45.866 7.92 46.1966 7.312C46.5273 6.69333 46.9913 6.21866 47.5886 5.888C48.186 5.54666 48.8793 5.37599 49.6686 5.37599C50.4473 5.37599 51.1246 5.55199 51.7006 5.904C52.2766 6.24533 52.7246 6.72533 53.0446 7.344C53.3646 7.952 53.5246 8.66133 53.5246 9.472V10.16H47.7486C47.77 10.704 47.9726 11.1467 48.3566 11.488C48.7406 11.8293 49.21 12 49.7646 12C50.33 12 50.746 11.8773 51.0126 11.632C51.2793 11.3867 51.482 11.1147 51.6206 10.816L53.2686 11.68C53.1193 11.9573 52.9006 12.2613 52.6126 12.592C52.3353 12.912 51.962 13.1893 51.4926 13.424C51.0233 13.648 50.426 13.76 49.7006 13.76ZM47.7646 8.656H51.4766C51.434 8.19733 51.2473 7.82933 50.9166 7.552C50.5966 7.27466 50.1753 7.136 49.6526 7.136C49.1086 7.136 48.6766 7.27466 48.3566 7.552C48.0366 7.82933 47.8393 8.19733 47.7646 8.656ZM57.6934 13.536C57.1707 13.536 56.744 13.376 56.4134 13.056C56.0934 12.7253 55.9334 12.288 55.9334 11.744V7.264H53.9494V5.6H55.9334V3.13599H57.9494V5.6H60.1254V7.264H57.9494V11.392C57.9494 11.712 58.0987 11.872 58.3974 11.872H59.9334V13.536H57.6934ZM61.5503 13.536V5.6H63.5663V13.536H61.5503ZM62.5583 4.672C62.1956 4.672 61.8863 4.55466 61.6303 4.31999C61.3849 4.08533 61.2623 3.77599 61.2623 3.392C61.2623 3.008 61.3849 2.69866 61.6303 2.46399C61.8863 2.22933 62.1956 2.11199 62.5583 2.11199C62.9316 2.11199 63.2409 2.22933 63.4863 2.46399C63.7316 2.69866 63.8543 3.008 63.8543 3.392C63.8543 3.77599 63.7316 4.08533 63.4863 4.31999C63.2409 4.55466 62.9316 4.672 62.5583 4.672ZM69.1283 13.76C68.3603 13.76 67.6616 13.6 67.0323 13.28C66.4136 12.96 65.9229 12.496 65.5603 11.888C65.1976 11.28 65.0163 10.544 65.0163 9.68V9.456C65.0163 8.592 65.1976 7.856 65.5603 7.248C65.9229 6.64 66.4136 6.176 67.0323 5.856C67.6616 5.53599 68.3603 5.37599 69.1283 5.37599C69.8856 5.37599 70.5363 5.50933 71.0803 5.776C71.6243 6.04266 72.0616 6.41066 72.3923 6.88C72.7336 7.33866 72.9576 7.86133 73.0643 8.448L71.1123 8.864C71.0696 8.544 70.9736 8.256 70.8243 8C70.6749 7.744 70.4616 7.54133 70.1843 7.392C69.9176 7.24266 69.5816 7.16799 69.1763 7.16799C68.7709 7.16799 68.4029 7.25866 68.0723 7.44C67.7523 7.61066 67.4963 7.872 67.3043 8.224C67.1229 8.56533 67.0323 8.98666 67.0323 9.488V9.648C67.0323 10.1493 67.1229 10.576 67.3043 10.928C67.4963 11.2693 67.7523 11.5307 68.0723 11.712C68.4029 11.8827 68.7709 11.968 69.1763 11.968C69.7843 11.968 70.2429 11.8133 70.5523 11.504C70.8723 11.184 71.0749 10.768 71.1603 10.256L73.1123 10.72C72.9736 11.2853 72.7336 11.8027 72.3923 12.272C72.0616 12.7307 71.6243 13.0933 71.0803 13.36C70.5363 13.6267 69.8856 13.76 69.1283 13.76Z" fill="black"/>
</svg>
