<svg width="82" height="23" viewBox="0 0 82 23" fill="none" xmlns="http://www.w3.org/2000/svg">
<g filter="url(#filter0_d_132_6)">
<path d="M14.144 0.0479946H15.888V12.656H14.144V0.0479946ZM11.12 3.344H19.392V4.736H11.12V3.344ZM11.552 9.808H19.088V11.184H11.552V9.808ZM11.952 7.616H18.688V9.008H11.952V7.616ZM8.16 1.23199H10.384V2.76799H8.16V1.23199ZM8.976 5.61599H10.736V7.008H8.976V5.61599ZM9.952 1.23199H10.16L10.432 1.15199L11.632 1.472C11.4187 2.06933 11.168 2.72533 10.88 3.43999C10.6027 4.15466 10.3093 4.87466 10 5.6C9.69066 6.32533 9.392 7.01333 9.104 7.664L7.536 7.312C7.74933 6.82133 7.97333 6.30933 8.208 5.776C8.44266 5.232 8.66666 4.69333 8.88 4.16C9.09333 3.616 9.29066 3.10933 9.472 2.63999C9.664 2.17066 9.824 1.76 9.952 1.408V1.23199ZM10.256 5.61599H10.576L10.864 5.584L11.872 5.75999C11.712 8.02133 11.36 9.904 10.816 11.408C10.272 12.912 9.456 14.0907 8.368 14.944C8.304 14.7947 8.208 14.6293 8.08 14.448C7.96266 14.2773 7.83466 14.1013 7.696 13.92C7.568 13.7493 7.44 13.6107 7.312 13.504C7.89866 13.0987 8.39466 12.528 8.8 11.792C9.20533 11.0453 9.53066 10.1707 9.776 9.168C10.0213 8.16533 10.1813 7.072 10.256 5.888V5.61599ZM9.072 8.016C9.28533 9.06133 9.57333 9.91466 9.936 10.576C10.2987 11.2373 10.7253 11.7493 11.216 12.112C11.7173 12.4747 12.2827 12.7253 12.912 12.864C13.552 12.992 14.2453 13.056 14.992 13.056C15.1413 13.056 15.36 13.056 15.648 13.056C15.9467 13.056 16.2773 13.056 16.64 13.056C17.0133 13.056 17.3813 13.056 17.744 13.056C18.1173 13.0453 18.464 13.04 18.784 13.04C19.104 13.04 19.3493 13.0347 19.52 13.024C19.4453 13.1627 19.3653 13.3333 19.28 13.536C19.1947 13.7493 19.12 13.9627 19.056 14.176C18.992 14.3893 18.944 14.5813 18.912 14.752H18.144H14.896C13.936 14.752 13.072 14.6613 12.304 14.48C11.536 14.3093 10.8533 13.9947 10.256 13.536C9.65866 13.088 9.14133 12.4533 8.704 11.632C8.27733 10.8 7.91466 9.73333 7.616 8.432L9.072 8.016ZM12.144 1.248H18.592V6.88H12.144V5.488H16.992V2.63999H12.144V1.248ZM6.88 -4.76837e-06L8.592 0.495995C8.31466 1.38133 7.97866 2.27733 7.584 3.184C7.2 4.08 6.77866 4.93333 6.32 5.744C5.86133 6.55466 5.37066 7.26933 4.848 7.888C4.816 7.728 4.74666 7.52 4.64 7.264C4.544 6.99733 4.43733 6.73066 4.32 6.46399C4.21333 6.19733 4.10666 5.97866 4 5.808C4.608 5.09333 5.15733 4.224 5.648 3.2C6.14933 2.16533 6.56 1.09866 6.88 -4.76837e-06ZM5.792 4.608L7.44 2.96L7.456 2.99199V14.944H5.792V4.608ZM19.712 13.536L22.656 2.33599H26.336L29.28 13.536H27.104L26.496 11.072H22.496L21.888 13.536H19.712ZM22.992 9.12H26L24.64 3.66399H24.352L22.992 9.12ZM32.9184 13.536C32.3957 13.536 31.969 13.376 31.6384 13.056C31.3184 12.7253 31.1584 12.288 31.1584 11.744V7.264H29.1744V5.6H31.1584V3.13599H33.1744V5.6H35.3504V7.264H33.1744V11.392C33.1744 11.712 33.3237 11.872 33.6224 11.872H35.1584V13.536H32.9184ZM36.7752 13.536V2.33599H38.7912V6.57599H39.0792C39.1646 6.40533 39.2979 6.23466 39.4792 6.064C39.6606 5.89333 39.9006 5.75466 40.1992 5.64799C40.5086 5.53066 40.8979 5.472 41.3672 5.472C41.9859 5.472 42.5246 5.616 42.9832 5.904C43.4526 6.18133 43.8152 6.57066 44.0712 7.072C44.3272 7.56266 44.4552 8.13866 44.4552 8.8V13.536H42.4392V8.96C42.4392 8.36266 42.2899 7.91466 41.9912 7.616C41.7032 7.31733 41.2872 7.16799 40.7432 7.16799C40.1246 7.16799 39.6446 7.376 39.3032 7.792C38.9619 8.19733 38.7912 8.768 38.7912 9.504V13.536H36.7752ZM46.2346 13.536V2.33599H48.2506V13.536H46.2346ZM53.7006 13.76C52.9113 13.76 52.2126 13.5947 51.6046 13.264C51.0073 12.9227 50.538 12.448 50.1966 11.84C49.866 11.2213 49.7006 10.496 49.7006 9.664V9.472C49.7006 8.64 49.866 7.92 50.1966 7.312C50.5273 6.69333 50.9913 6.21866 51.5886 5.888C52.186 5.54666 52.8793 5.37599 53.6686 5.37599C54.4473 5.37599 55.1246 5.55199 55.7006 5.904C56.2766 6.24533 56.7246 6.72533 57.0446 7.344C57.3646 7.952 57.5246 8.66133 57.5246 9.472V10.16H51.7486C51.77 10.704 51.9726 11.1467 52.3566 11.488C52.7406 11.8293 53.21 12 53.7646 12C54.33 12 54.746 11.8773 55.0126 11.632C55.2793 11.3867 55.482 11.1147 55.6206 10.816L57.2686 11.68C57.1193 11.9573 56.9006 12.2613 56.6126 12.592C56.3353 12.912 55.962 13.1893 55.4926 13.424C55.0233 13.648 54.426 13.76 53.7006 13.76ZM51.7646 8.656H55.4766C55.434 8.19733 55.2473 7.82933 54.9166 7.552C54.5966 7.27466 54.1753 7.136 53.6526 7.136C53.1086 7.136 52.6766 7.27466 52.3566 7.552C52.0366 7.82933 51.8393 8.19733 51.7646 8.656ZM61.6934 13.536C61.1707 13.536 60.744 13.376 60.4134 13.056C60.0934 12.7253 59.9334 12.288 59.9334 11.744V7.264H57.9494V5.6H59.9334V3.13599H61.9494V5.6H64.1254V7.264H61.9494V11.392C61.9494 11.712 62.0987 11.872 62.3974 11.872H63.9334V13.536H61.6934ZM65.5503 13.536V5.6H67.5663V13.536H65.5503ZM66.5583 4.672C66.1956 4.672 65.8863 4.55466 65.6303 4.31999C65.3849 4.08533 65.2623 3.77599 65.2623 3.392C65.2623 3.008 65.3849 2.69866 65.6303 2.46399C65.8863 2.22933 66.1956 2.11199 66.5583 2.11199C66.9316 2.11199 67.2409 2.22933 67.4863 2.46399C67.7316 2.69866 67.8543 3.008 67.8543 3.392C67.8543 3.77599 67.7316 4.08533 67.4863 4.31999C67.2409 4.55466 66.9316 4.672 66.5583 4.672ZM73.1283 13.76C72.3603 13.76 71.6616 13.6 71.0323 13.28C70.4136 12.96 69.9229 12.496 69.5603 11.888C69.1976 11.28 69.0163 10.544 69.0163 9.68V9.456C69.0163 8.592 69.1976 7.856 69.5603 7.248C69.9229 6.64 70.4136 6.176 71.0323 5.856C71.6616 5.53599 72.3603 5.37599 73.1283 5.37599C73.8856 5.37599 74.5363 5.50933 75.0803 5.776C75.6243 6.04266 76.0616 6.41066 76.3923 6.88C76.7336 7.33866 76.9576 7.86133 77.0643 8.448L75.1123 8.864C75.0696 8.544 74.9736 8.256 74.8243 8C74.6749 7.744 74.4616 7.54133 74.1843 7.392C73.9176 7.24266 73.5816 7.16799 73.1763 7.16799C72.7709 7.16799 72.4029 7.25866 72.0723 7.44C71.7523 7.61066 71.4963 7.872 71.3043 8.224C71.1229 8.56533 71.0323 8.98666 71.0323 9.488V9.648C71.0323 10.1493 71.1229 10.576 71.3043 10.928C71.4963 11.2693 71.7523 11.5307 72.0723 11.712C72.4029 11.8827 72.7709 11.968 73.1763 11.968C73.7843 11.968 74.2429 11.8133 74.5523 11.504C74.8723 11.184 75.0749 10.768 75.1603 10.256L77.1123 10.72C76.9736 11.2853 76.7336 11.8027 76.3923 12.272C76.0616 12.7307 75.6243 13.0933 75.0803 13.36C74.5363 13.6267 73.8856 13.76 73.1283 13.76Z" fill="black"/>
</g>
<defs>
<filter id="filter0_d_132_6" x="0" y="0" width="81.1122" height="22.944" filterUnits="userSpaceOnUse" color-interpolation-filters="sRGB">
<feFlood flood-opacity="0" result="BackgroundImageFix"/>
<feColorMatrix in="SourceAlpha" type="matrix" values="0 0 0 0 0 0 0 0 0 0 0 0 0 0 0 0 0 0 127 0" result="hardAlpha"/>
<feOffset dy="4"/>
<feGaussianBlur stdDeviation="2"/>
<feComposite in2="hardAlpha" operator="out"/>
<feColorMatrix type="matrix" values="0 0 0 0 0 0 0 0 0 0 0 0 0 0 0 0 0 0 0.25 0"/>
<feBlend mode="normal" in2="BackgroundImageFix" result="effect1_dropShadow_132_6"/>
<feBlend mode="normal" in="SourceGraphic" in2="effect1_dropShadow_132_6" result="shape"/>
</filter>
</defs>
</svg>
