<svg width="16" height="15" viewBox="0 0 16 15" fill="none" xmlns="http://www.w3.org/2000/svg">
<path d="M10.144 0.0480022H11.888V12.656H10.144V0.0480022ZM7.11998 3.344H15.392V4.736H7.11998V3.344ZM7.55197 9.808H15.088V11.184H7.55197V9.808ZM7.95197 7.616H14.688V9.008H7.95197V7.616ZM4.15998 1.232H6.38398V2.768H4.15998V1.232ZM4.97598 5.616H6.73597V7.008H4.97598V5.616ZM5.95197 1.232H6.15998L6.43197 1.152L7.63198 1.472C7.41864 2.06934 7.16797 2.72534 6.87997 3.44C6.60264 4.15467 6.30931 4.87467 5.99997 5.6C5.69064 6.32534 5.39197 7.01334 5.10397 7.664L3.53597 7.312C3.74931 6.82134 3.97331 6.30934 4.20797 5.776C4.44264 5.232 4.66664 4.69334 4.87997 4.16C5.09331 3.616 5.29064 3.10934 5.47197 2.64C5.66397 2.17067 5.82397 1.76 5.95197 1.408V1.232ZM6.25597 5.616H6.57597L6.86398 5.584L7.87197 5.76C7.71198 8.02134 7.35998 9.904 6.81597 11.408C6.27197 12.912 5.45597 14.0907 4.36797 14.944C4.30397 14.7947 4.20797 14.6293 4.07997 14.448C3.96264 14.2773 3.83464 14.1013 3.69597 13.92C3.56797 13.7493 3.43997 13.6107 3.31197 13.504C3.89864 13.0987 4.39464 12.528 4.79997 11.792C5.20531 11.0453 5.53064 10.1707 5.77597 9.168C6.02131 8.16534 6.18131 7.072 6.25597 5.888V5.616ZM5.07197 8.016C5.28531 9.06134 5.57331 9.91467 5.93598 10.576C6.29864 11.2373 6.72531 11.7493 7.21597 12.112C7.71731 12.4747 8.28264 12.7253 8.91197 12.864C9.55197 12.992 10.2453 13.056 10.992 13.056C11.1413 13.056 11.36 13.056 11.648 13.056C11.9466 13.056 12.2773 13.056 12.64 13.056C13.0133 13.056 13.3813 13.056 13.744 13.056C14.1173 13.0453 14.464 13.04 14.784 13.04C15.104 13.04 15.3493 13.0347 15.52 13.024C15.4453 13.1627 15.3653 13.3333 15.28 13.536C15.1946 13.7493 15.12 13.9627 15.056 14.176C14.992 14.3893 14.944 14.5813 14.912 14.752H14.144H10.896C9.93598 14.752 9.07198 14.6613 8.30398 14.48C7.53598 14.3093 6.85331 13.9947 6.25597 13.536C5.65864 13.088 5.14131 12.4533 4.70397 11.632C4.27731 10.8 3.91464 9.73334 3.61597 8.432L5.07197 8.016ZM8.14398 1.248H14.592V6.88H8.14398V5.488H12.992V2.64H8.14398V1.248ZM2.87997 2.86102e-06L4.59197 0.496002C4.31464 1.38134 3.97864 2.27734 3.58397 3.184C3.19997 4.08 2.77864 4.93334 2.31997 5.744C1.86131 6.55467 1.37064 7.26934 0.847975 7.888C0.815975 7.728 0.746641 7.52 0.639975 7.264C0.543975 6.99734 0.437308 6.73067 0.319975 6.464C0.213308 6.19734 0.106641 5.97867 -2.53767e-05 5.808C0.607975 5.09334 1.15731 4.224 1.64797 3.2C2.14931 2.16534 2.55997 1.09867 2.87997 2.86102e-06ZM1.79197 4.608L3.43997 2.96L3.45597 2.992V14.944H1.79197V4.608Z" fill="black"/>
</svg>
